<svg xmlns="http://www.w3.org/2000/svg" xmlns:xlink="http://www.w3.org/1999/xlink" width="200" zoomAndPan="magnify" viewBox="0 0 150 149.999998" height="200" preserveAspectRatio="xMidYMid meet" version="1.0"><defs><clipPath id="2367428657"><path d="M 59 84 L 98 84 L 98 147 L 59 147 Z M 59 84 " clip-rule="nonzero"/></clipPath><clipPath id="27f9b9dd2b"><path d="M 51.625 148.792969 L 28.386719 10.484375 L 98.652344 -1.320312 L 121.890625 136.992188 Z M 51.625 148.792969 " clip-rule="nonzero"/></clipPath><clipPath id="2d9d6a8808"><path d="M 51.625 148.792969 L 28.386719 10.484375 L 98.652344 -1.320312 L 121.890625 136.992188 Z M 51.625 148.792969 " clip-rule="nonzero"/></clipPath><clipPath id="3f1befb141"><path d="M 28 12 L 89 12 L 89 51 L 28 51 Z M 28 12 " clip-rule="nonzero"/></clipPath><clipPath id="488969da8c"><path d="M 51.625 148.792969 L 28.386719 10.484375 L 98.652344 -1.320312 L 121.890625 136.992188 Z M 51.625 148.792969 " clip-rule="nonzero"/></clipPath><clipPath id="63e6fce9b5"><path d="M 51.625 148.792969 L 28.386719 10.484375 L 98.652344 -1.320312 L 121.890625 136.992188 Z M 51.625 148.792969 " clip-rule="nonzero"/></clipPath><clipPath id="2db5ac9279"><path d="M 57 92 L 80 92 L 80 114 L 57 114 Z M 57 92 " clip-rule="nonzero"/></clipPath><clipPath id="0b557df313"><path d="M 51.625 148.792969 L 28.386719 10.484375 L 98.652344 -1.320312 L 121.890625 136.992188 Z M 51.625 148.792969 " clip-rule="nonzero"/></clipPath><clipPath id="4fdbb3f6a7"><path d="M 51.625 148.792969 L 28.386719 10.484375 L 98.652344 -1.320312 L 121.890625 136.992188 Z M 51.625 148.792969 " clip-rule="nonzero"/></clipPath><clipPath id="7fcca9a022"><path d="M 112 111 L 119 111 L 119 132 L 112 132 Z M 112 111 " clip-rule="nonzero"/></clipPath><clipPath id="94f2537283"><path d="M 51.625 148.792969 L 28.386719 10.484375 L 98.652344 -1.320312 L 121.890625 136.992188 Z M 51.625 148.792969 " clip-rule="nonzero"/></clipPath><clipPath id="9e33529f22"><path d="M 51.625 148.792969 L 28.386719 10.484375 L 98.652344 -1.320312 L 121.890625 136.992188 Z M 51.625 148.792969 " clip-rule="nonzero"/></clipPath><clipPath id="0c4434e076"><path d="M 67 15 L 87 15 L 87 36 L 67 36 Z M 67 15 " clip-rule="nonzero"/></clipPath><clipPath id="5027ec5655"><path d="M 51.625 148.792969 L 28.386719 10.484375 L 98.652344 -1.320312 L 121.890625 136.992188 Z M 51.625 148.792969 " clip-rule="nonzero"/></clipPath><clipPath id="f06aad1e50"><path d="M 51.625 148.792969 L 28.386719 10.484375 L 98.652344 -1.320312 L 121.890625 136.992188 Z M 51.625 148.792969 " clip-rule="nonzero"/></clipPath><clipPath id="2945f5f446"><path d="M 88 12 L 99 12 L 99 33 L 88 33 Z M 88 12 " clip-rule="nonzero"/></clipPath><clipPath id="fd6a497b46"><path d="M 51.625 148.792969 L 28.386719 10.484375 L 98.652344 -1.320312 L 121.890625 136.992188 Z M 51.625 148.792969 " clip-rule="nonzero"/></clipPath><clipPath id="05ed187f18"><path d="M 51.625 148.792969 L 28.386719 10.484375 L 98.652344 -1.320312 L 121.890625 136.992188 Z M 51.625 148.792969 " clip-rule="nonzero"/></clipPath><clipPath id="6adddbc381"><path d="M 98 103 L 106 103 L 106 124 L 98 124 Z M 98 103 " clip-rule="nonzero"/></clipPath><clipPath id="7a9d6f8e9d"><path d="M 51.625 148.792969 L 28.386719 10.484375 L 98.652344 -1.320312 L 121.890625 136.992188 Z M 51.625 148.792969 " clip-rule="nonzero"/></clipPath><clipPath id="8dfc75e429"><path d="M 51.625 148.792969 L 28.386719 10.484375 L 98.652344 -1.320312 L 121.890625 136.992188 Z M 51.625 148.792969 " clip-rule="nonzero"/></clipPath><clipPath id="2573ce3a44"><path d="M 60 48 L 73 48 L 73 55 L 60 55 Z M 60 48 " clip-rule="nonzero"/></clipPath><clipPath id="4c3b2cff35"><path d="M 51.625 148.792969 L 28.386719 10.484375 L 98.652344 -1.320312 L 121.890625 136.992188 Z M 51.625 148.792969 " clip-rule="nonzero"/></clipPath><clipPath id="8835a6e398"><path d="M 51.625 148.792969 L 28.386719 10.484375 L 98.652344 -1.320312 L 121.890625 136.992188 Z M 51.625 148.792969 " clip-rule="nonzero"/></clipPath></defs><g clip-path="url(#2367428657)"><g clip-path="url(#27f9b9dd2b)"><g clip-path="url(#2d9d6a8808)"><path fill="#ff4500" d="M 97.054688 84.535156 C 96.867188 90.417969 98.308594 87.664062 64.214844 142.230469 C 61.59375 146.425781 60.496094 147.242188 59.289062 146.445312 C 55.683594 144.066406 88.628906 93.460938 90.402344 90.691406 C 91.65625 88.734375 93.464844 87.125 95.082031 85.421875 C 95.441406 85.046875 96.09375 84.953125 97.054688 84.535156 Z M 97.054688 84.535156 " fill-opacity="1" fill-rule="nonzero"/></g></g></g><g clip-path="url(#3f1befb141)"><g clip-path="url(#488969da8c)"><g clip-path="url(#63e6fce9b5)"><path fill="#ff4500" d="M 82.691406 44.3125 C 87.175781 47.15625 88.8125 48.292969 88.574219 49.613281 C 87.527344 55.421875 45.683594 26.960938 38.566406 22.269531 C 35.628906 20.335938 33.046875 17.847656 30.367188 15.535156 C 29.730469 14.984375 29.367188 14.117188 28.878906 13.394531 C 30.726562 10.210938 47.023438 21.671875 82.691406 44.3125 Z M 82.691406 44.3125 " fill-opacity="1" fill-rule="nonzero"/></g></g></g><g clip-path="url(#2db5ac9279)"><g clip-path="url(#0b557df313)"><g clip-path="url(#4fdbb3f6a7)"><path fill="#ff4500" d="M 79.996094 92.851562 C 79.804688 93.851562 80.078125 94.859375 77.792969 97.128906 C 61.171875 113.640625 62.710938 112.007812 60.332031 113.589844 C 58.789062 114.617188 57.085938 112.929688 58.539062 111.320312 C 61.4375 108.105469 73.101562 97.027344 75.367188 94.890625 C 76.554688 93.769531 77.894531 92.71875 79.996094 92.851562 Z M 79.996094 92.851562 " fill-opacity="1" fill-rule="nonzero"/></g></g></g><g clip-path="url(#7fcca9a022)"><g clip-path="url(#94f2537283)"><g clip-path="url(#9e33529f22)"><path fill="#ff4500" d="M 116.269531 114.335938 C 116.722656 128.339844 120.417969 129.960938 117.566406 131.121094 C 115.375 132.011719 114.613281 129.414062 113.664062 126.558594 C 110.441406 116.855469 113.632812 108.292969 115.539062 112.230469 C 115.902344 112.980469 116.09375 113.808594 116.269531 114.335938 Z M 116.269531 114.335938 " fill-opacity="1" fill-rule="nonzero"/></g></g></g><g clip-path="url(#0c4434e076)"><g clip-path="url(#5027ec5655)"><g clip-path="url(#f06aad1e50)"><path fill="#ff4500" d="M 85.824219 33.042969 C 86.320312 33.753906 86.488281 34.691406 86.851562 35.640625 C 85.277344 36.097656 86.054688 36.472656 70.511719 20.453125 C 62.433594 12.128906 73.1875 14.957031 85.824219 33.042969 Z M 85.824219 33.042969 " fill-opacity="1" fill-rule="nonzero"/></g></g></g><g clip-path="url(#2945f5f446)"><g clip-path="url(#fd6a497b46)"><g clip-path="url(#05ed187f18)"><path fill="#ff4500" d="M 88.96875 12.960938 C 91.492188 16.1875 89.652344 12.589844 97.691406 28.761719 C 98.964844 31.328125 97.058594 33.890625 95.316406 30.527344 C 89.941406 20.15625 86.195312 14.328125 88.96875 12.960938 Z M 88.96875 12.960938 " fill-opacity="1" fill-rule="nonzero"/></g></g></g><g clip-path="url(#6adddbc381)"><g clip-path="url(#7a9d6f8e9d)"><g clip-path="url(#8dfc75e429)"><path fill="#ff4500" d="M 104.636719 103.351562 C 105.929688 105.710938 105.386719 105.835938 101.214844 119.152344 C 99.972656 123.117188 100.902344 121.453125 99.574219 123.179688 C 99.207031 122.789062 98.644531 122.453125 98.515625 121.992188 C 98.316406 121.285156 98.203125 120.433594 98.414062 119.75 C 103.546875 102.941406 102.8125 105.679688 104.636719 103.351562 Z M 104.636719 103.351562 " fill-opacity="1" fill-rule="nonzero"/></g></g></g><g clip-path="url(#2573ce3a44)"><g clip-path="url(#4c3b2cff35)"><g clip-path="url(#8835a6e398)"><path fill="#ff4500" d="M 62.28125 51.507812 C 60.726562 50.929688 60.433594 49.460938 60.820312 48.617188 C 61.355469 47.464844 63.171875 48.316406 70.882812 51.121094 C 71.746094 51.433594 72.3125 52.652344 72.191406 53.023438 C 71.402344 55.4375 66.730469 53.167969 62.28125 51.507812 Z M 62.28125 51.507812 " fill-opacity="1" fill-rule="nonzero"/></g></g></g></svg>